# xmcd
#
# Track frame offsets:
#	150
#	13700
#	27562
#	43330
#	73902
#	86504
#	106038
#	122116
#	132516
#	146752
#	161942
#	183638
#	196575
#	205449
#	220984
#	241411
#	259215
#	270434
#	299932
#	315381
#	332283
#
# Disc length: 4639 seconds
# Revision: 0
# Processed by: cddbd v1.4PL0 Copyright (c) Steve Scherf et al.
# Submitted via: cdrLabel 6.1
#
DISCID=4e121d15
DTITLE=Lady Sings The Blues - Lady Sings The Blues
DYEAR=2003
DGENRE=Various Artists
TTITLE0=Norah Jones - Don`t Know Why
TTITLE1=Dusty Springfield - The Look Of Love
TTITLE2=Sanne Salomonsen - New York Minute
TTITLE3=Julie London - Cry Me A River
TTITLE4=Ss Fenger - I`ll Be Seeing You
TTITLE5=Dinah Shore - My Funny Valentine
TTITLE6=Dinah Washington - Call Me Irresponsible
TTITLE7=Ccilie Norby - What Do you See In Her
TTITLE8=Peggy Lee - Fever
TTITLE9=Cassandra Wilson - I`m So Lonesome I Could Cry
TTITLE10=Sarah Vaughan - `Round Midnight
TTITLE11=Nancy Wilson - Wives And Lovers
TTITLE12=Lisa Ekdahl - How Many More Times
TTITLE13=Gladys knight and The Pips - Midnight Train To Georgia
TTITLE14=Millie Jackson - I Don`t Want To Be Right
TTITLE15=Lena Horne - In Love In vain
TTITLE16=Ruby Turner - I`d Rather Go Blind
TTITLE17=Nina Simone - Wild In The Wind
TTITLE18=Billie Holiday - Lady Sings The Blues
TTITLE19=Tina Turner - Night Time Is The Right Time
TTITLE20=Erma Thomas - I`ve Been Loving You To Long
EXTD=
EXTT0=
EXTT1=
EXTT2=
EXTT3=
EXTT4=
EXTT5=
EXTT6=
EXTT7=
EXTT8=
EXTT9=
EXTT10=
EXTT11=
EXTT12=
EXTT13=
EXTT14=
EXTT15=
EXTT16=
EXTT17=
EXTT18=
EXTT19=
EXTT20=
PLAYORDER=
